<svg width="94" height="94" viewBox="0 0 94 94" fill="none" xmlns="http://www.w3.org/2000/svg">
<path d="M91.2866 13.0733L70.3333 1.12662C69.6239 0.717034 68.8191 0.501404 68 0.501404C67.1808 0.501404 66.3761 0.717034 65.6666 1.12662L47 11.7666L28.3333 1.12662C27.6239 0.717034 26.8191 0.501404 26 0.501404C25.1808 0.501404 24.3761 0.717034 23.6666 1.12662L2.71331 13.0733C1.99247 13.4785 1.39224 14.0679 0.974049 14.7813C0.555861 15.4947 0.334738 16.3064 0.333313 17.1333V41.0266C0.334738 41.8535 0.555861 42.6652 0.974049 43.3786C1.39224 44.092 1.99247 44.6814 2.71331 45.0866L21.38 55.68V76.8666C21.3814 77.6935 21.6025 78.5052 22.0207 79.2186C22.4389 79.932 23.0391 80.5214 23.76 80.9266L44.76 92.8733C45.4694 93.2829 46.2741 93.4985 47.0933 93.4985C47.9125 93.4985 48.7172 93.2829 49.4266 92.8733L70.3333 80.9266C71.0541 80.5214 71.6544 79.932 72.0726 79.2186C72.4908 78.5052 72.7119 77.6935 72.7133 76.8666V55.68L91.38 45.0866C92.1008 44.6814 92.701 44.092 93.1192 43.3786C93.5374 42.6652 93.7585 41.8535 93.76 41.0266V17.1333C93.7493 16.297 93.5142 15.479 93.0791 14.7647C92.6439 14.0505 92.0249 13.4663 91.2866 13.0733ZM9.66665 38.32V19.6533L26 10.32L42.3333 19.6533V38.32L26 47.6533L9.66665 38.32ZM63.3333 74.16L47 83.4933L30.6666 74.16V55.4933L47 46.16L63.3333 55.4933V74.16ZM84.3333 38.32L68 47.6533L51.6666 38.32V19.6533L68 10.32L84.3333 19.6533V38.32Z" fill="url(#paint0_linear)"/>
<defs>
<linearGradient id="paint0_linear" x1="8.88887" y1="0.333354" x2="83.5555" y2="93.6667" gradientUnits="userSpaceOnUse">
<stop stop-color="#FF002E"/>
<stop offset="1" stop-color="#EB00FF"/>
</linearGradient>
</defs>
</svg>
